Genre:Horror | Sci-Fi
Language:English
 
http://www.imdb.com/title/tt1629439/

Source:BluRay X264-7SinS Thanks!

Format : MPEG-4
Format profile : Base Media
Codec ID : isom
File size : 2.10 GiB
Duration : 1h 30mn
Overall bit rate : 3 340 Kbps

Video
ID : 1
Format : AVC
Format/Info : Advanced Video Codec
Format profile : High@L4.1
Format settings, CABAC : Yes
Format settings, ReFrames : 3 frames
Codec ID : avc1
Codec ID/Info : Advanced Video Coding
Duration : 1h 29mn
Bit rate mode : Variable
Bit rate : 3 000 Kbps
Maximum bit rate : 15.6 Mbps
Width : 1 280 pixels
Height : 720 pixels
Display aspect ratio : 16:9
Frame rate mode : Constant
Frame rate : 23.976 fps
Color space : YUV
Chroma subsampling : 4:2:0
Bit depth : 8 bits
Scan type : Progressive
Bits/(Pixel*Frame) : 0.136
Stream size : 1.82 GiB (87%)
Writing library : x264

Audio
ID : 2
Format : AAC
Format/Info : Advanced Audio Codec
Format version : Version 4
Format profile : LC
Format settings, SBR : No
Codec ID : 40
Duration : 1h 30mn
Bit rate mode : Variable
Bit rate : 442 Kbps
Maximum bit rate : 516 Kbps
Channel(s) : 6 channels
Channel positions : Front: L C R, Side: L R, LFE
Sampling rate : 48.0 KHz
Stream size : 285 MiB (13%)


Plot:
51 chronicles what happens after political pressure from the American public forces 
the Air Force to.
 
http://www.pix2links.com/images/24454573685822225422.png
 
http://www.pix2links.com/images/05562039264551024837.png
 
http://www.pix2links.com/images/77603396892133404028.png
 
http://www.pix2links.com/images/24479970672561501372.png


